<svg xmlns="http://www.w3.org/2000/svg" viewBox="0 0 120.37 52.71"><defs><style>.cls-1{fill:#d8b89f;}.cls-2{fill:#fff;}.cls-3{fill:#d94a51;}.cls-4{fill:#57abc5;}</style></defs><title>Asset 1</title><g id="Layer_2" data-name="Layer 2"><g id="Layer_1-2" data-name="Layer 1"><circle class="cls-1" cx="14.47" cy="9.81" r="8.95"/><path class="cls-2" d="M28.71,17.1a.84.84,0,0,1,.39.55,1.59,1.59,0,0,1,0,.49L22.88,51.88a1,1,0,0,1-.76.8,1.05,1.05,0,0,1-.58,0,.85.85,0,0,1-.45-.38L1.69,24.18a1.25,1.25,0,0,1-.27-.54A.88.88,0,0,1,1.55,23a.86.86,0,0,1,.58-.39,1.11,1.11,0,0,1,1.19.53L21.43,49.24l5.78-31.43a1,1,0,0,1,1.5-.71Z"/><path class="cls-2" d="M50.54,26a.8.8,0,0,1,.24.58V45.84a.89.89,0,0,1-.85.84.76.76,0,0,1-.6-.26.8.8,0,0,1-.24-.58V42.05a9.17,9.17,0,0,1-3.23,3.6A8.63,8.63,0,0,1,41,47.1a9,9,0,0,1-5-1.45,9.87,9.87,0,0,1-3.49-4A12.51,12.51,0,0,1,31.26,36a12.07,12.07,0,0,1,1.29-5.61,9.73,9.73,0,0,1,3.51-3.91A9.07,9.07,0,0,1,41,25a8.83,8.83,0,0,1,4.92,1.43,8,8,0,0,1,3.15,3.83V26.53a.8.8,0,0,1,.24-.58.83.83,0,0,1,1.21,0ZM45.29,44.26a8.33,8.33,0,0,0,2.92-3.43,11.12,11.12,0,0,0,1-4.88,10.57,10.57,0,0,0-1-4.71,8.38,8.38,0,0,0-2.92-3.38,7.39,7.39,0,0,0-4.19-1.24,7.58,7.58,0,0,0-4.18,1.2A8.07,8.07,0,0,0,34,31.14,10.69,10.69,0,0,0,33,36a11.12,11.12,0,0,0,1,4.88,8.36,8.36,0,0,0,2.9,3.43,7.72,7.72,0,0,0,8.39,0Z"/><path class="cls-2" d="M71.86,27.23A8.5,8.5,0,0,1,73.75,33V45.84a.77.77,0,0,1-.25.58.82.82,0,0,1-1.2,0,.83.83,0,0,1-.23-.58V33.14a7.2,7.2,0,0,0-1.49-4.69,5.49,5.49,0,0,0-4.52-1.83,8.09,8.09,0,0,0-3.64.88,8,8,0,0,0-2.92,2.4,5.29,5.29,0,0,0-1.14,3.24v12.7a.77.77,0,0,1-.25.58.82.82,0,0,1-.59.26.79.79,0,0,1-.61-.26.83.83,0,0,1-.23-.58V26.53a.77.77,0,0,1,.25-.58.82.82,0,0,1,.59-.26.79.79,0,0,1,.61.26.83.83,0,0,1,.23.58v2.82a9.34,9.34,0,0,1,3.43-3.11A9.13,9.13,0,0,1,66.23,25,7,7,0,0,1,71.86,27.23Z"/><path class="cls-2" d="M79.43,21.78a1.25,1.25,0,0,1-.4-1v-.34a1.25,1.25,0,0,1,.42-1,1.57,1.57,0,0,1,1.09-.38,1.41,1.41,0,0,1,1,.38,1.3,1.3,0,0,1,.4,1v.34a1.28,1.28,0,0,1-.4,1,1.45,1.45,0,0,1-1,.38A1.49,1.49,0,0,1,79.43,21.78Zm1.66,24.64a.82.82,0,0,1-.59.26.84.84,0,0,1-.84-.84v-20a.81.81,0,0,1,.25-.59.84.84,0,0,1,1.2,0,.88.88,0,0,1,.23.59v20A.81.81,0,0,1,81.09,46.42Z"/><path class="cls-2" d="M88.88,46.42a.82.82,0,0,1-1.2,0,.83.83,0,0,1-.23-.58V16.4a.82.82,0,0,1,.26-.59.77.77,0,0,1,.58-.25.76.76,0,0,1,.61.25.84.84,0,0,1,.24.59V45.84A.78.78,0,0,1,88.88,46.42Z"/><path class="cls-2" d="M96.89,46.42a.82.82,0,0,1-.59.26.79.79,0,0,1-.61-.26.83.83,0,0,1-.23-.58V16.4a.85.85,0,0,1,.84-.84.78.78,0,0,1,.61.25.88.88,0,0,1,.23.59V45.84A.77.77,0,0,1,96.89,46.42Z"/><path class="cls-2" d="M120,41.86a.77.77,0,0,1,.21.53.8.8,0,0,1-.17.5,11,11,0,0,1-3.45,3,8.78,8.78,0,0,1-4.41,1.18,11.34,11.34,0,0,1-5.59-1.35,9.47,9.47,0,0,1-3.81-3.82,11.8,11.8,0,0,1-1.37-5.77,12.61,12.61,0,0,1,1.33-5.9,9.58,9.58,0,0,1,3.51-3.89A8.73,8.73,0,0,1,110.87,25a10.11,10.11,0,0,1,4.6,1.07,8.71,8.71,0,0,1,3.47,3.22,10.25,10.25,0,0,1,1.43,5.3.87.87,0,0,1-.25.61.79.79,0,0,1-.59.27H103V36a10.63,10.63,0,0,0,1.06,4.77,8,8,0,0,0,3.11,3.43,9.3,9.3,0,0,0,5,1.26,8.14,8.14,0,0,0,6.6-3.49.9.9,0,0,1,.72-.38A.67.67,0,0,1,120,41.86ZM107.69,27.52A8.43,8.43,0,0,0,104.83,30a9.08,9.08,0,0,0-1.66,3.93h15.48v-.38a7.14,7.14,0,0,0-1.37-3.67,7.44,7.44,0,0,0-2.86-2.34,8.29,8.29,0,0,0-3.55-.8A7.09,7.09,0,0,0,107.69,27.52Z"/><path class="cls-3" d="M19.55,23a38.15,38.15,0,0,0,8.51-3.74,6.89,6.89,0,1,0-13-1.34C15.55,20.33,14.63,24.42,19.55,23Z"/><path class="cls-4" d="M10.21,24.58a38.46,38.46,0,0,0,5.7-.69A8.61,8.61,0,1,0,.41,20.8,8.66,8.66,0,0,0,2.68,25C4.7,25,7.77,24.86,10.21,24.58Z"/><path class="cls-2" d="M28.93,14.35A7.44,7.44,0,0,0,24.5,9.51a9.66,9.66,0,0,0-.21-1.67A9.93,9.93,0,0,0,4.7,10.89,9.11,9.11,0,0,0,2.23,24.83a.74.74,0,0,0,.39.23,26.12,26.12,0,0,0,5.14.43,39.92,39.92,0,0,0,8.3-.9A34,34,0,0,0,28.47,19.5a.67.67,0,0,0,.24-.31A7.37,7.37,0,0,0,28.93,14.35Zm-1.48,4.12a34.07,34.07,0,0,1-11.69,4.71,34.82,34.82,0,0,1-12.61.52,7.71,7.71,0,0,1,3.13-12,8.32,8.32,0,0,1,1-.32,7.67,7.67,0,0,1,9,4.83.72.72,0,1,0,1.35-.49A9.1,9.1,0,0,0,6.94,10a7.44,7.44,0,0,0-.84.25,8.48,8.48,0,0,1,6.7-8.63A8.33,8.33,0,0,1,19.19,2.8a8.32,8.32,0,0,1,2.39,2.3,8.66,8.66,0,0,1,1.31,3.05c.06.31.11.63.15.95a7.55,7.55,0,0,0-4.55.65.72.72,0,0,0-.33.95.73.73,0,0,0,1,.34,6,6,0,0,1,2.07-.59,6,6,0,0,1,3.26.6,6,6,0,0,1,3,7.42Z"/><rect class="cls-4" x="11.31" y="18.49" width="3.95" height="13.04" rx="1.97" ry="1.97"/></g></g></svg>